<svg width="400" height="225" viewBox="0 0 400 225" fill="none" xmlns="http://www.w3.org/2000/svg">
<rect width="400" height="225" rx="12" fill="url(#paint0_linear_1_5)"/>
<rect x="20" y="20" width="360" height="185" rx="8" fill="white" fill-opacity="0.1"/>
<rect x="60" y="70" width="80" height="100" rx="8" fill="#C4B5FD"/>
<rect x="70" y="80" width="60" height="10" rx="5" fill="white"/>
<rect x="70" y="95" width="40" height="10" rx="5" fill="white"/>
<rect x="160" y="70" width="80" height="100" rx="8" fill="#A78BFA"/>
<rect x="170" y="80" width="60" height="10" rx="5" fill="white"/>
<rect x="170" y="95" width="40" height="10" rx="5" fill="white"/>
<rect x="260" y="70" width="80" height="100" rx="8" fill="#8B5CF6"/>
<rect x="270" y="80" width="60" height="10" rx="5" fill="white"/>
<rect x="270" y="95" width="40" height="10" rx="5" fill="white"/>
<text x="200" y="60" font-family="Inter, sans-serif" font-size="18" font-weight="700" fill="white" text-anchor="middle">Professional Services CRM & Billing</text>
<defs>
<linearGradient id="paint0_linear_1_5" x1="0" y1="0" x2="400" y2="225" gradientUnits="userSpaceOnUse">
<stop stop-color="#A78BFA"/>
<stop offset="1" stop-color="#7C3AED"/>
</linearGradient>
</defs>
</svg>
